<mxfile host="app.diagrams.net" modified="2024-04-17T11:39:26.159Z" agent="Mozilla/5.0 (Macintosh; Intel Mac OS X 10_15_7) AppleWebKit/537.36 (KHTML, like Gecko) Chrome/123.0.0.0 Safari/537.36" version="24.2.5" etag="2sppsgN_srs97f19jbSC" type="github">
  <diagram name="Page-1" id="VAMx8NaaD_yWFlFD9U2z">
    <mxGraphModel>
      <root>
        <mxCell id="0" />
        <mxCell id="1" parent="0" />
      </root>
    </mxGraphModel>
  </diagram>
</mxfile>
